<svg enable-background="new 0 0 558.4 445.8" viewBox="0 0 558.4 445.8" xmlns="http://www.w3.org/2000/svg" xmlns:xlink="http://www.w3.org/1999/xlink"><defs><path id="a" d="m558.4 230.6c-.5-36.7-17-70.5-40.4-98.1-24.4-28.8-54.6-53.4-88.2-73.3-39.1-23.2-80.2-34.7-123.5-46.7-45.6-12.7-93.5-15.6-140.3-9.3-47.9 6.3-98.9 22.5-132.5 59.2-39.3 43-45.1 110.7-11.8 158.4 10.1 14.5 18.6 27.4 19.5 45.7 1 21.3-3 42.3 2.7 63.3 12.4 46.1 45.4 85.3 89.5 104 58.9 24.9 125.7 2.8 187.2 5.7 26.9 1.2 54.1 4.2 80.6-3.1 42.5-11.7 87.4-34 114.2-70.4 28.3-38.6 43.6-87.5 43-135.4z"/><clipPath id="b"><use xlink:href="#a"/></clipPath><linearGradient id="c"><stop offset="0" stop-color="#fff" stop-opacity="0"/><stop offset="1" stop-color="#747eb3" stop-opacity=".4"/></linearGradient><radialGradient id="d" cx="140.1747" cy="32.9468" gradientTransform="matrix(.8317 .5552 -.5552 .8317 125.1549 -140.9111)" gradientUnits="userSpaceOnUse" r="207.079" xlink:href="#c"/><clipPath id="e"><use xlink:href="#w"/></clipPath><radialGradient id="f" cx="447.4164" cy="138.0558" gradientTransform="matrix(.8317 .5552 -.5552 .8317 125.1549 -140.9111)" gradientUnits="userSpaceOnUse" r="198.6363" xlink:href="#c"/><clipPath id="g"><use xlink:href="#x"/></clipPath><radialGradient id="h" cx="364.6768" cy="105.5798" gradientTransform="matrix(.8317 .5552 -.5552 .8317 125.1549 -140.9111)" gradientUnits="userSpaceOnUse" r="58.0949"><stop offset="0" stop-color="#fff" stop-opacity="0"/><stop offset="1" stop-color="#747eb3" stop-opacity=".7"/></radialGradient><clipPath id="i"><use xlink:href="#y"/></clipPath><radialGradient id="j" cx="363.3292" cy="131.9919" gradientTransform="matrix(.8317 .5552 -.5552 .8317 125.1549 -140.9111)" gradientUnits="userSpaceOnUse" r="54.4259"><stop offset="0" stop-color="#fff" stop-opacity="0"/><stop offset="1" stop-color="#747eb3"/></radialGradient><clipPath id="k"><use xlink:href="#z"/></clipPath><radialGradient id="l" cx="292.1785" cy="184.1421" gradientTransform="matrix(.8317 .5552 -.5552 .8317 125.1549 -140.9111)" gradientUnits="userSpaceOnUse" r="129.6489" xlink:href="#c"/><radialGradient id="m" cx="354.8396" cy="210.8236" gradientTransform="matrix(-.7506 -.6608 .4167 -.4733 481.7271 565.6962)" gradientUnits="userSpaceOnUse" r="66.8934"><stop offset="0" stop-color="#fff" stop-opacity="0"/><stop offset="1" stop-color="#747eb3" stop-opacity=".2"/></radialGradient><clipPath id="n"><use xlink:href="#A"/></clipPath><linearGradient id="o"><stop offset="0" stop-color="#f5f7fa" stop-opacity="0"/><stop offset=".1385" stop-color="#f0f2f7" stop-opacity=".1108"/><stop offset=".2926" stop-color="#e3e5ee" stop-opacity=".2341"/><stop offset=".4542" stop-color="#cdcfdf" stop-opacity=".3634"/><stop offset=".621" stop-color="#aeb0ca" stop-opacity=".4968"/><stop offset=".7918" stop-color="#8788b0" stop-opacity=".6335"/><stop offset=".9636" stop-color="#57578f" stop-opacity=".7709"/><stop offset="1" stop-color="#4c4c88" stop-opacity=".8"/></linearGradient><radialGradient id="p" cx="79.8596" cy="130.7601" gradientTransform="matrix(.6502 .7598 -.5499 .4706 99.8447 8.5485)" gradientUnits="userSpaceOnUse" r="38.2076" xlink:href="#o"/><clipPath id="q"><use xlink:href="#B"/></clipPath><radialGradient id="r" cx="302.5803" cy="398.157" gradientTransform="matrix(.6502 .7598 -.5499 .4706 324.8049 -19.1104)" gradientUnits="userSpaceOnUse" r="29.7258" xlink:href="#o"/><clipPath id="s"><use xlink:href="#C"/></clipPath><radialGradient id="t" cx="37.4272" cy="349.3079" gradientTransform="matrix(.6502 .7598 -.5499 .4706 205.1864 156.4864)" gradientUnits="userSpaceOnUse" r="53.2177" xlink:href="#o"/><clipPath id="u"><use xlink:href="#D"/></clipPath><radialGradient id="v" cx="454.4231" cy="19.7061" gradientTransform="matrix(.6502 .7598 -.5499 .4706 169.8017 -334.828)" gradientUnits="userSpaceOnUse" r="51.2163" xlink:href="#o"/><path id="w" d="m323.5 146.6c-9.5 5.5-19.3 7.3-31-8.1-25-32.9-49.4-65.6-74.4-98.5-9.4-12.4-26.8-29.2-22.6-44.2 4.9-17.2 28.6-30.8 42.7-37.7 19.2-9.4 34.6 15.5 46.9 32.9 23.6 33.5 48 69.7 70.3 104 13.6 20.9-3.7 34.1-16.3 41.3-5.2 3.1-10.4 7.3-15.6 10.3z"/><path id="x" d="m420.8 221.8c9.5-5.5 19.3-7.3 31 8.1 25 32.9 49.4 65.6 74.4 98.5 9.4 12.4 26.8 29.2 22.6 44.2-4.9 17.2-28.6 30.8-42.7 37.7-19.2 9.4-34.6-15.5-46.9-32.9-23.6-33.5-48-69.7-70.3-104-13.6-20.9 3.7-34.1 16.3-41.3 5.2-3.1 10.4-7.2 15.6-10.3z"/><path id="y" d="m377.8 226.8 13.5-9c6.1-4.1 13-7.8 18.5-12.7 8.3-7.3 3.1-16.1-1.8-23.7-6.6-10.2-13.1-20.4-20.4-30.1-2.5-3.4-5.4-9.5-9.2-11.5-3.3-1.8-7.3-1.4-10.5.3-12.6 6.5-24.1 14.5-35.7 22.6-4.5 3.1-9.3 5.9-13.4 9.4-3.2 2.7-8.5 5.5-8 10.3.2 2.3 1.4 4.3 2.5 6.3 9 16 19.8 31.2 29.9 46.6 1.3 2 2.7 4.1 4.8 5.4 3.8 2.3 7.9-.8 11.4-2.3 4.6-2 8.6-5.1 12.7-7.9 1.9-1.2 3.8-2.5 5.7-3.7z"/><path id="z" d="m314.1 293.3c-44.6-3.1-85-72.8-68.7-106.4 5.7-11.8 23.7-21.9 41.4-16.5 19.8 6.1 38.1 23.7 50.3 43.9 24.1 40.1 14.1 81.5-23 79z"/><path id="A" d="m74.9 154.4c4.6 6.9 14.2 10.3 22.2 7.7 8-2.5 13.8-10.7 13.4-19-.4-8.5-7.1-15.7-15.7-17.2-6.6-1.2-12.5 1.3-17.1 5.9-5.3 5.2-6.9 16.4-2.8 22.6z"/><path id="B" d="m298.7 416.5c3.6 5.4 11 8 17.3 6s10.8-8.3 10.5-14.7c-.3-6.6-5.5-12.2-12.2-13.4-5.2-.9-9.7 1-13.3 4.6-4.2 4-5.5 12.8-2.3 17.5z"/><path id="C" d="m30.5 382.2c6.4 9.7 19.7 14.3 30.9 10.8s19.3-14.9 18.7-26.4c-.6-11.9-9.8-21.9-21.9-24-9.2-1.6-17.4 1.8-23.8 8.2-7.3 7.1-9.6 22.9-3.9 31.4z"/><path id="D" d="m447.7 51.4c6.2 9.3 19 13.8 29.8 10.4s18.5-14.3 18-25.4c-.5-11.5-9.5-21-21.1-23.1-8.9-1.6-16.8 1.8-22.9 7.8-7 6.9-9.2 22-3.8 30.3z"/></defs><use fill="#22313f" xlink:href="#a"/><g clip-path="url(#b)" fill="none" stroke="#ae9554" stroke-miterlimit="10"><path d="m156.7 258.6c.9-4 1.2-8.1.6-12.2" stroke-width="1.8788"/><path d="m161.9 253.2c-3.3-.3-6.7-.3-10 0" stroke-width="1.8788"/><path d="m154.1 257.4c2.5-2.8 4.9-5.6 7.4-8.4" stroke-width="1.8788"/><path d="m53.3 250c-.4-2.2-1-4.3-1.6-6.4" stroke-width="1.2018"/><path d="m56.1 246.4c-2.4.2-4.7.5-7.1.7" stroke-width="1.2018"/><path d="m50.8 249.3c1.4-1.8 2.8-3.7 4.2-5.5" stroke-width="1.2018"/><path d="m489.4 123c-1.1-2.5-2.2-5.1-3.3-7.6" stroke-width="1.4424"/><path d="m492.4 118.4c-2.7.3-5.4.9-8 2" stroke-width="1.4424"/><path d="m487 122.6c.8-2.5 1.7-5 2.9-7.4" stroke-width="1.4424"/><path d="m72.4 192.6c-.4-.8-.8-1.6-1.2-2.4" stroke-width="1.8788"/><path d="m8.5 139.1c.9-1 1.3-2.4 1.1-3.7" stroke-width="1.8788"/><path d="m12.3 138.7c-2.4-1.1-2.4-1.1-4.9-2.2" stroke-width="1.8788"/><path d="m236.6 82.4c-1.5-.8-3-1.6-4.5-2.4" stroke-width="1.8788"/><path d="m272.9 372.5c1-.6 1.7-1.6 2-2.7" stroke-width="1.8788"/><path d="m130.1 420.1c1.4-.7 2.9-1.5 4.3-2.2" stroke-width="1.8788"/><path d="m169.3 17.9c-.9-.9-2-1.6-3.2-2" stroke-width="1.8788"/><g stroke-width="1.597"><path d="m184 361.6c-2.2-.8-4.4-1.7-6.7-2.5"/><path d="m180 364.2c.8-2.2 1.6-4.4 2.5-6.7"/><path d="m177.8 361.9c1.5-.6 3.1-.7 4.6-.5"/><path d="m323.3 19.8c-1-1.6-2.7-2.7-4.5-3.2"/><path d="m319.6 19.6c.7-1.4 1.7-2.7 3-3.6"/><path d="m119.8 16.9c-1.5-1-3-2.1-4.5-3.1"/><path d="m119.2 13.1c-1 1.9-2.5 3.5-4.2 4.9"/><path d="m118.1 18.8c-.9-1.7-1.4-3.5-1.7-5.4"/><path d="m43.2 105.5c-.3-2-.5-4-.8-5.9"/><path d="m38.5 102.8c2.6.4 5.2.3 7.7-.5"/><path d="m40.1 105.8c1.2-1.4 2.4-2.9 3.6-4.3.3-.3.5-.9.1-1.1"/></g><path d="m404 308.8c1.2 1.8 2.5 3.6 3.9 5.3" stroke-width="1.2018"/><path d="m402.8 313.1c2.1-1.1 4.2-2.2 6.3-3.3" stroke-width="1.2018"/><path d="m406.5 308.4c-.6 2.2-1.2 4.5-1.8 6.7" stroke-width="1.2018"/><path d="m153 432.4c2 1.9 4 3.9 6 5.8" stroke-width="1.4424"/><path d="m152 437.8c2.4-1.3 4.7-2.9 6.6-4.9" stroke-width="1.4424"/><path d="m155.4 431.8c.2 2.6.3 5.3.1 7.9" stroke-width="1.4424"/><path d="m513 147.4c.7.6 1.4 1.2 2.1 1.8" stroke-width="1.8788"/><path d="m539.7 237.7c-.4 1.3-.3 2.7.4 3.9" stroke-width="1.8788"/><path d="m536.4 239.5c2.7.1 2.7.1 5.3.2" stroke-width="1.8788"/><path d="m327.1 381.2c1.7.2 3.4.3 5 .5" stroke-width="1.8788"/><path d="m470.1 343.8c-.7 1-1 2.1-.8 3.3" stroke-width="1.8788"/><path d="m47.7 297.2c1.3.4 2.7.4 4 .1" stroke-width="1.8788"/><path d="m294.7 138.9 3.6 1.8" stroke-width="1.8788"/><path d="m296.5 420.4c.9.6 1.8 1 2.7 1" stroke-width="1.5231"/><path d="m228.6 158.5c2.4-.1 4.7-.1 7.1-.2" stroke-width="1.597"/><path d="m231.4 154.6c.1 2.4.2 4.7.2 7.1" stroke-width="1.597"/><path d="m234.3 155.9c-1.1 1.1-2.5 1.8-4.1 2.2" stroke-width="1.597"/></g><g clip-path="url(#b)"><path d="m333.7 140.4 66.9 94.2" fill="none" stroke="#8694a8" stroke-miterlimit="10" stroke-width="10.6132"/><path d="m320.8 153.2c-11.1 6.6-22.3 9.2-34.5-6.8-26.2-34.3-51.7-68.4-77.8-102.8-9.9-13-28.4-30.1-22.7-46.8 6.6-19.1 34.3-35.4 50.6-43.8 22.3-11.5 38.2 14.7 50.9 33 24.5 35 49.9 73 72.9 109 14 21.9-6.4 37.4-21 46.1-6.2 3.5-12.3 8.4-18.4 12.1z" fill="#7a8299"/><path d="m320.8 153.2c-11.1 6.6-22.3 9.2-34.5-6.8-26.2-34.3-51.7-68.4-77.8-102.8-9.9-13-28.4-30.1-22.7-46.8 6.6-19.1 34.3-35.4 50.6-43.8 22.3-11.5 38.2 14.7 50.9 33 24.5 35 49.9 73 72.9 109 14 21.9-6.4 37.4-21 46.1-6.2 3.5-12.3 8.4-18.4 12.1z" fill="url(#d)"/><use fill="#21394d" xlink:href="#w"/><g fill="none" stroke-miterlimit="10"><path clip-path="url(#e)" d="m204.4-28c7.4 10.5 107.9 147.8 125.6 176.3" stroke="#c6d2ea" stroke-width="2.6533"/><path clip-path="url(#e)" d="m226.7-44.7c7.4 10.5 107.9 147.8 125.6 176.3" stroke="#c6d2ea" stroke-width="2.6533"/><path clip-path="url(#e)" d="m291.2-18.2c-12.9 9-90.9 62.2-101.7 68" stroke="#c6d2ea" stroke-width="2.6533"/><path clip-path="url(#e)" d="m319.8 20.4c-12.9 9-90.9 62.2-101.7 68" stroke="#c6d2ea" stroke-width="2.6533"/><path clip-path="url(#e)" d="m349.1 60.5c-12.9 9-90.9 62.2-101.7 68" stroke="#c6d2ea" stroke-width="2.6533"/></g><path d="m418.5 217.9c11.1-6.6 22.4-9.2 34.6 6.8 26.2 34.4 51.8 68.5 78 103 9.9 13 28.5 30.2 22.8 46.9-6.6 19.1-34.4 35.5-50.8 43.9-22.4 11.5-38.2-14.8-51-33-24.6-35.1-50-73.1-73.1-109.2-14-22 6.4-37.5 21-46.2 6.3-3.7 12.4-8.6 18.5-12.2z" fill="#7a8299"/><path d="m418.5 217.9c11.1-6.6 22.4-9.2 34.6 6.8 26.2 34.4 51.8 68.5 78 103 9.9 13 28.5 30.2 22.8 46.9-6.6 19.1-34.4 35.5-50.8 43.9-22.4 11.5-38.2-14.8-51-33-24.6-35.1-50-73.1-73.1-109.2-14-22 6.4-37.5 21-46.2 6.3-3.7 12.4-8.6 18.5-12.2z" fill="url(#f)"/><use fill="#21394d" xlink:href="#x"/><path clip-path="url(#g)" d="m538.9 395.8c-7.3-10.5-107.9-147.8-125.5-176.3" fill="none" stroke="#c6d2ea" stroke-miterlimit="10" stroke-width="2.6533"/><path clip-path="url(#g)" d="m516.6 412.5c-7.4-10.5-107.9-147.8-125.6-176.3" fill="none" stroke="#c6d2ea" stroke-miterlimit="10" stroke-width="2.6533"/><path clip-path="url(#g)" d="m452.1 386c12.9-9 90.9-62.2 101.7-68" fill="none" stroke="#c6d2ea" stroke-miterlimit="10" stroke-width="2.6533"/><path clip-path="url(#g)" d="m423.5 347.3c12.9-9 90.9-62.2 101.7-68" fill="none" stroke="#c6d2ea" stroke-miterlimit="10" stroke-width="2.6533"/><path clip-path="url(#g)" d="m394.2 307.3c12.9-9 90.9-62.2 101.7-68" fill="none" stroke="#c6d2ea" stroke-miterlimit="10" stroke-width="2.6533"/><path d="m395.5 203.4c3.3-2.2 6.5-4.4 9.8-6.5 4.4-3 9.4-5.7 13.4-9.2 6-5.3 2.3-11.6-1.3-17.2-4.8-7.4-9.5-14.7-14.8-21.8-1.8-2.4-3.9-6.8-6.6-8.3-2.4-1.3-5.3-1-7.6.2-9.1 4.7-17.4 10.5-25.8 16.3-3.3 2.3-6.7 4.3-9.7 6.8-2.3 2-6.1 4-5.8 7.4.2 1.6 1 3.1 1.8 4.6 6.5 11.6 14.4 22.5 21.6 33.7 1 1.5 2 3 3.4 3.9 2.8 1.7 5.7-.6 8.3-1.7 3.3-1.4 6.2-3.7 9.2-5.7 1.4-.7 2.8-1.6 4.1-2.5z" fill="#a4abc9"/><path d="m395.5 203.4c3.3-2.2 6.5-4.4 9.8-6.5 4.4-3 9.4-5.7 13.4-9.2 6-5.3 2.3-11.6-1.3-17.2-4.8-7.4-9.5-14.7-14.8-21.8-1.8-2.4-3.9-6.8-6.6-8.3-2.4-1.3-5.3-1-7.6.2-9.1 4.7-17.4 10.5-25.8 16.3-3.3 2.3-6.7 4.3-9.7 6.8-2.3 2-6.1 4-5.8 7.4.2 1.6 1 3.1 1.8 4.6 6.5 11.6 14.4 22.5 21.6 33.7 1 1.5 2 3 3.4 3.9 2.8 1.7 5.7-.6 8.3-1.7 3.3-1.4 6.2-3.7 9.2-5.7 1.4-.7 2.8-1.6 4.1-2.5z" fill="url(#h)"/><use fill="#c6d2ea" xlink:href="#y"/><path clip-path="url(#i)" d="m324.9 163.7 49.9 69.9" fill="none" stroke="#d37daa" stroke-miterlimit="10" stroke-width="10.6132"/><path clip-path="url(#i)" d="m397.2 194.6 11.7 16.3" fill="none" stroke="#7fb1d3" stroke-miterlimit="10" stroke-width="10.6132"/><path clip-path="url(#i)" d="m359 140.9 23.3 32.7" fill="none" stroke="#7fb1d3" stroke-miterlimit="10" stroke-width="10.6132"/><path clip-path="url(#i)" d="m377.8 226.8 13.5-9c6.1-4.1 13-7.8 18.5-12.7 8.3-7.3 3.1-16.1-1.8-23.7-6.6-10.2-13.1-20.4-20.4-30.1-2.5-3.4-5.4-9.5-9.2-11.5-3.3-1.8-7.3-1.4-10.5.3-12.6 6.5-24.1 14.5-35.7 22.6-4.5 3.1-9.3 5.9-13.4 9.4-3.2 2.7-8.5 5.5-8 10.3.2 2.3 1.4 4.3 2.5 6.3 9 16 19.8 31.2 29.9 46.6 1.3 2 2.7 4.1 4.8 5.4 3.8 2.3 7.9-.8 11.4-2.3 4.6-2 8.6-5.1 12.7-7.9 1.9-1.2 3.8-2.5 5.7-3.7z" fill="url(#j)" opacity=".5"/><use fill="#a4abc9" xlink:href="#z"/><path clip-path="url(#k)" d="m314.1 293.3c-44.6-3.1-85-72.8-68.7-106.4 5.7-11.8 23.7-21.9 41.4-16.5 19.8 6.1 38.1 23.7 50.3 43.9 24.1 40.1 14.1 81.5-23 79z" fill="url(#l)"/><path clip-path="url(#k)" d="m272.1 263.6c-17.4-20.8-27.8-48.6-22.9-67.8 3.3-13.1 14.7-20.1 29.3-18.6 35.7 3.7 71.7 57.2 64.4 89.5-6.5 28.9-43.9 29.1-70.8-3.1z" fill="#c6d2ea"/><path clip-path="url(#k)" d="m272.1 263.6c-17.4-20.8-27.8-48.6-22.9-67.8 3.3-13.1 14.7-20.1 29.3-18.6 35.7 3.7 71.7 57.2 64.4 89.5-6.5 28.9-43.9 29.1-70.8-3.1z" fill="url(#m)"/><path clip-path="url(#k)" d="m284.1 243.6c-7.5-10.1-12.4-22.6-11.2-30.3.9-5.3 5.1-7.3 10.8-5.6 14 4.3 29.8 29.5 28 42.6-1.5 11.6-16 8.9-27.6-6.7z" fill="none" stroke="#a4abc9" stroke-miterlimit="10" stroke-width="1.3267"/><path d="m335.6 219.2-110.9 58.9c-.4.2-.8.1-1-.3s-.1-.8.3-1l109.7-61.1c1-.5 2.2-.2 2.7.8.5.9.2 2.1-.8 2.7z" fill="#8f9bbc"/><path d="m253.7 183.4-28.8 94.1c-.1.3-.4.5-.7.4s-.5-.4-.4-.7l27-94.7c.2-.8 1.1-1.3 1.9-1s1.2 1.1 1 1.9z" fill="#8f9bbc"/><path d="m291.4 285-67.1-6.8c-.4 0-.7-.4-.6-.8 0-.4.4-.7.8-.6l67.2 5.3c.8.1 1.4.8 1.4 1.6-.1.7-.8 1.3-1.7 1.3z" fill="#8f9bbc"/><path d="m218.4 280.8c-3.2-4.5 2.2-9.9 7-8.4 3 .9 4.9 4.4 4 7.4-1.6 5.1-8.3 4.8-11 1z" fill="#717799"/><path d="m194.3 244.7c-12.7 8.6-20.2 24.5-18.5 39.7 1.6 15.3 12.3 29.2 26.6 34.9 6 2.4 12.6 3.4 19.1 3.3 7.4-.1 14.8-1.5 21.8-4" fill="none" stroke="#9da4c7" stroke-linecap="round" stroke-miterlimit="10" stroke-width="3"/><path d="m159.1 237.6c-1.5 1.4-3 2.8-4.4 4.3-14.5 15.3-21.9 37.3-18.4 58.1 7.7 44.7 54.8 62.6 94.3 51.7" fill="none" stroke="#9da4c7" stroke-linecap="round" stroke-miterlimit="10" stroke-width="3"/></g><use fill="#7d9bba" xlink:href="#A"/><path clip-path="url(#n)" d="m74.9 154.4c4.6 6.9 14.2 10.3 22.2 7.7 8-2.5 13.8-10.7 13.4-19-.4-8.5-7.1-15.7-15.7-17.2-6.6-1.2-12.5 1.3-17.1 5.9-5.3 5.2-6.9 16.4-2.8 22.6z" fill="url(#p)"/><g clip-path="url(#n)"><g fill="none" stroke-miterlimit="10" stroke-width=".2697"><path d="m94.7 147.4c.9-.2 1.7-.9 1.9-1.8" stroke="#8898ba"/><path d="m93.5 136c.9-.2 1.7-.9 1.9-1.8" stroke="#8796b8"/><path d="m86.3 158c.8.5 1.9.4 2.7-.1" stroke="#7984ad"/><path d="m77 141.4c.6.3 1.4.3 2-.1 0 0 .4.2.7.1" stroke="#8898b9"/><path d="m106 150c.7-.1 1.3-.6 1.5-1.2" stroke="#6c75a3"/></g><path d="m84.3 148.6c1.4.2 2.1-.9.9-.8-.5 0-1 .3-1.1.5-.2.2 0 .3.2.3z" fill="#8999bb"/><path d="m99.9 156.3c1.1.4 1.7-1.4.7-1.2-.4.1-.8.4-.9.8-.1.2 0 .3.2.4z" fill="#727da8"/><path d="m80.7 132.3c-.1.2-.2.4-.1.6.1.1.2.2.3.3.3-.2.6-.6.9-.8.2-.2.7-.2.6-.6-.2-.9-1.5.2-1.7.5z" fill="#88a3bf"/><path d="m104.4 139.1c-.1.3-.2.7-.4.9-.1.1-.2.2-.2.3 0 .5.8 0 1-.2.3-.4.4-1 .2-1.4 0-.1-.1-.2-.2-.2-.2 0-.3.1-.3.3 0 .1 0 .2-.1.3z" fill="#7d8ab0"/></g><use fill="#7d9bba" xlink:href="#B"/><path clip-path="url(#q)" d="m298.7 416.5c3.6 5.4 11 8 17.3 6s10.8-8.3 10.5-14.7c-.3-6.6-5.5-12.2-12.2-13.4-5.2-.9-9.7 1-13.3 4.6-4.2 4-5.5 12.8-2.3 17.5z" fill="url(#r)"/><g clip-path="url(#q)"><g fill="none" stroke-miterlimit="10" stroke-width=".2098"><path d="m314.1 411.1c.7-.1 1.3-.7 1.5-1.4" stroke="#8898ba"/><path d="m313.2 402.2c.7-.1 1.3-.7 1.5-1.4" stroke="#8796b8"/><path d="m307.6 419.3c.6.4 1.5.3 2.1-.1" stroke="#7984ad"/><path d="m300.4 406.4c.5.3 1.1.2 1.5-.1 0 0 .3.1.5.1" stroke="#8898b9"/><path d="m322.9 413.1c.5-.1 1-.5 1.2-1" stroke="#6c75a3"/></g><path d="m306 412c1.1.2 1.7-.7.7-.6-.4 0-.8.2-.9.4 0 .1.1.2.2.2z" fill="#8999bb"/><path d="m318.1 418c.9.3 1.3-1.1.5-1-.3 0-.6.3-.7.6 0 .3.1.4.2.4z" fill="#727da8"/><path d="m303.2 399.4c-.1.1-.1.3-.1.5 0 .1.2.2.3.2.3-.2.4-.5.7-.6.2-.1.6-.2.5-.5-.2-.7-1.2.1-1.4.4z" fill="#88a3bf"/><path d="m321.7 404.6c-.1.2-.1.5-.3.7-.1.1-.1.1-.1.2 0 .4.7 0 .8-.1.3-.3.3-.8.2-1.1 0-.1-.1-.1-.2-.2-.1 0-.2.1-.3.2 0 .2-.1.3-.1.3z" fill="#7d8ab0"/></g><use fill="#7d9bba" xlink:href="#C"/><path clip-path="url(#s)" d="m30.5 382.2c6.4 9.7 19.7 14.3 30.9 10.8s19.3-14.9 18.7-26.4c-.6-11.9-9.8-21.9-21.9-24-9.2-1.6-17.4 1.8-23.8 8.2-7.3 7.1-9.6 22.9-3.9 31.4z" fill="url(#t)"/><g clip-path="url(#s)"><g fill="none" stroke-miterlimit="10" stroke-width=".3756"><path d="m58.1 372.4c1.3-.2 2.4-1.3 2.7-2.5" stroke="#8898ba"/><path d="m56.5 356.6c1.3-.2 2.4-1.3 2.7-2.5" stroke="#8796b8"/><path d="m46.5 387.2c1.1.6 2.6.6 3.7-.2" stroke="#7984ad"/><path d="m33.5 364.1c.8.5 2 .4 2.7-.1 0 0 .5.2.9.1" stroke="#8898b9"/><path d="m73.8 376.1c1-.1 1.8-.8 2.1-1.7" stroke="#6c75a3"/></g><path d="m43.6 374.1c2 .3 3-1.3 1.2-1.1-.7.1-1.4.4-1.6.7-.1.3.1.4.4.4z" fill="#8999bb"/><path d="m65.3 384.9c1.5.6 2.3-1.9.9-1.7-.5.1-1.1.5-1.2 1.1-.1.3 0 .5.3.6z" fill="#727da8"/><path d="m38.6 351.5c-.2.2-.3.5-.2.8.1.2.3.3.5.4.5-.3.8-.8 1.3-1.2.3-.2 1-.3.9-.9-.4-1.1-2.2.4-2.5.9z" fill="#88a3bf"/><path d="m71.7 360.9c-.1.4-.2.9-.5 1.3-.1.1-.2.3-.2.4 0 .8 1.2 0 1.4-.2.5-.5.6-1.4.3-2-.1-.1-.2-.3-.3-.3-.2 0-.4.2-.5.4-.1.1-.2.3-.2.4z" fill="#7d8ab0"/></g><use fill="#7d9bba" xlink:href="#D"/><path clip-path="url(#u)" d="m447.7 51.4c6.2 9.3 19 13.8 29.8 10.4s18.5-14.3 18-25.4c-.5-11.5-9.5-21-21.1-23.1-8.9-1.6-16.8 1.8-22.9 7.8-7 6.9-9.2 22-3.8 30.3z" fill="url(#v)"/><g clip-path="url(#u)"><g fill="none" stroke-miterlimit="10" stroke-width=".3615"><path d="m474.3 42c1.2-.2 2.3-1.2 2.6-2.4" stroke="#8898ba"/><path d="m472.7 26.7c1.2-.2 2.3-1.2 2.6-2.4" stroke="#8796b8"/><path d="m463.1 56.2c1.1.6 2.5.6 3.6-.2" stroke="#7984ad"/><path d="m450.6 34c.8.5 1.9.4 2.6-.1 0 0 .5.2.9.1" stroke="#8898b9"/><path d="m489.4 45.5c.9-.1 1.8-.8 2-1.7" stroke="#6c75a3"/></g><path d="m460.3 43.6c1.9.3 2.9-1.2 1.1-1.1-.6.1-1.4.4-1.5.7 0 .2.2.4.4.4z" fill="#8999bb"/><path d="m481.2 53.9c1.5.6 2.2-1.9.9-1.7-.5.1-1.1.5-1.2 1 0 .5.1.7.3.7z" fill="#727da8"/><path d="m455.5 21.8c-.1.2-.3.5-.2.8.1.2.3.3.5.4.5-.3.8-.8 1.2-1.1.3-.2 1-.3.8-.8-.2-1.2-2 .3-2.3.7z" fill="#88a3bf"/><path d="m487.4 30.9c-.1.4-.2.9-.5 1.2-.1.1-.2.3-.2.4 0 .7 1.1 0 1.3-.2.5-.5.6-1.3.3-1.9-.1-.1-.2-.2-.3-.3-.2 0-.4.2-.5.4 0 .1-.1.2-.1.4z" fill="#7d8ab0"/></g><g fill="#8b9ebc"><g opacity=".5"><path d="m177.6 2.2-4.4 4c-.2.2-.5.2-.7 0s-.2-.5 0-.7l4.5-4c.2-.2.5-.2.7 0s.1.5-.1.7z"/><path d="m164.7 14.7-4.1 4.4c-.2.2-.5.2-.7 0s-.2-.5 0-.7l4.1-4.4c.2-.2.5-.2.7 0s.2.5 0 .7z"/><path d="m152.8 28.1-3.8 4.6c-.2.2-.5.3-.8.1s-.3-.5-.1-.8l3.8-4.6c.2-.2.5-.3.8-.1s.3.6.1.8z"/><path d="m141.7 42.3-3.5 4.9c-.2.2-.5.3-.8.1s-.3-.5-.1-.8l3.5-4.9c.2-.2.5-.3.8-.1s.3.5.1.8z"/><path d="m131.5 57-3.2 5c-.2.3-.5.3-.8.2-.3-.2-.3-.5-.2-.8l3.2-5.1c.2-.3.5-.3.8-.2.3.3.4.7.2.9z"/><path d="m122.1 72.3-2.9 5.2c-.2.3-.5.4-.8.2s-.4-.5-.2-.8l3-5.2c.2-.3.5-.4.8-.2.2.2.3.6.1.8z"/><path d="m113.6 88.2-2.6 5.4c-.1.3-.5.4-.8.3s-.4-.5-.3-.8l2.6-5.4c.1-.3.5-.4.8-.3s.5.5.3.8z"/><path d="m106 104.4-2.3 5.5c-.1.3-.5.5-.8.3s-.5-.5-.3-.8l2.3-5.5c.1-.3.5-.5.8-.3s.5.5.3.8z"/><path d="m99.4 121.1-2 5.6c-.1.3-.5.5-.8.4s-.5-.5-.4-.8l2-5.7c.1-.3.5-.5.8-.4.3.2.5.6.4.9z"/><path d="m93.8 138.2-1.7 5.7c-.1.3-.5.5-.8.4s-.5-.5-.4-.8l1.7-5.8c.1-.3.5-.5.8-.4.3.2.5.5.4.9z"/><path d="m89.1 155.5-1.3 5.8c-.1.4-.4.6-.8.5s-.6-.4-.5-.8l1.3-5.9c.1-.4.4-.6.8-.5.4.2.6.6.5.9z"/><path d="m85.5 173.1-1 5.9c-.1.4-.4.6-.8.6-.4-.1-.6-.4-.6-.8l1-5.9c.1-.4.4-.6.8-.6.4.1.7.4.6.8z"/><path d="m82.9 190.9-.6 6c0 .4-.4.7-.8.6-.4 0-.7-.4-.6-.8l.6-6c0-.4.4-.7.8-.6s.7.4.6.8z"/><path d="m81.4 208.8-.3 6c0 .4-.4.7-.8.7s-.7-.4-.7-.8l.3-6c0-.4.4-.7.8-.7s.7.4.7.8z"/><path d="m80.9 226.7.1 6c0 .4-.3.7-.7.7s-.7-.3-.7-.7v-6c0-.4.3-.7.7-.7.3 0 .6.3.6.7z"/><path d="m81.4 244.7.4 6c0 .4-.3.8-.7.8s-.8-.3-.8-.7l-.4-6c0-.4.3-.8.7-.8.4-.1.8.3.8.7z"/><path d="m82.9 262.6.7 5.9c.1.4-.2.8-.7.9s-.8-.2-.9-.7l-.7-6c-.1-.4.2-.8.7-.9.5 0 .9.3.9.8z"/><path d="m85.5 280.3 1.1 5.9c.1.4-.2.8-.6.9s-.8-.2-.9-.6l-1.1-5.9c-.1-.4.2-.8.6-.9s.8.2.9.6z"/><path d="m89.2 297.9 1.5 5.8c.1.4-.2.9-.6 1s-.9-.2-1-.6l-1.5-5.8c-.1-.4.2-.9.6-1 .5-.1.9.2 1 .6z"/><path d="m93.9 315.2 1.8 5.7c.1.4-.1.9-.5 1s-.9-.1-1-.5l-1.8-5.7c-.1-.4.1-.9.5-1 .4-.2.9.1 1 .5z"/><path d="m99.8 332.2 2.2 5.6c.2.4 0 .9-.5 1.1s-.9 0-1.1-.5l-2.2-5.6c-.2-.4 0-.9.5-1.1s.9 0 1.1.5z"/><path d="m106.6 348.8 2.5 5.4c.2.4 0 .9-.4 1.1s-.9 0-1.1-.4l-2.5-5.5c-.2-.4 0-.9.4-1.1s.9 0 1.1.5z"/><path d="m114.5 364.9 2.8 5.3c.2.4.1 1-.4 1.2-.4.2-1 .1-1.2-.4l-2.9-5.3c-.2-.4-.1-.9.4-1.2.6-.2 1.1 0 1.3.4z"/><path d="m123.4 380.5 3.2 5.1c.3.4.1 1-.3 1.2-.4.3-1 .1-1.2-.3l-3.2-5.1c-.3-.4-.1-1 .3-1.2.4-.3.9-.1 1.2.3z"/><path d="m133.2 395.5 3.5 4.9c.3.4.2 1-.2 1.3s-1 .2-1.3-.2l-3.5-4.9c-.3-.4-.2-1 .2-1.3s1-.2 1.3.2z"/><path d="m143.9 409.9 3.8 4.6c.3.4.3 1-.1 1.3s-1 .3-1.3-.1l-3.8-4.7c-.3-.4-.3-1 .1-1.3s1-.2 1.3.2z"/><path d="m155.5 423.6 4.1 4.4c.4.4.3 1 0 1.3-.4.4-1 .3-1.3 0l-4.1-4.4c-.3-.4-.3-1 .1-1.3.3-.4.9-.4 1.2 0z"/><path d="m168.1 436.4 4.4 4c.4.4.4 1 .1 1.3-.4.4-1 .4-1.3.1l-4.4-4.1c-.4-.4-.4-1-.1-1.3s.9-.4 1.3 0z"/></g><g opacity=".5"><path d="m420.7 54.4-5.8 1.5c-.3.1-.5-.1-.6-.4s.1-.5.4-.6l5.8-1.5c.3-.1.5.1.6.4 0 .2-.1.5-.4.6z"/><path d="m403.3 58.9-5.8 1.5c-.3.1-.5-.1-.6-.4s.1-.5.4-.6l5.8-1.5c.3-.1.5.1.6.4 0 .2-.2.5-.4.6z"/><path d="m385.9 63.4-5.8 1.6c-.3.1-.6-.1-.6-.4s.1-.6.4-.6l5.8-1.6c.3-.1.6.1.6.4s-.2.6-.4.6z"/><path d="m368.5 68.3-5.8 1.7c-.3.1-.6-.1-.6-.3s.1-.6.3-.6l5.8-1.7c.3-.1.6.1.6.4.2.1 0 .4-.3.5z"/><path d="m351.3 73.4-5.7 1.8c-.3.1-.6-.1-.7-.3-.1-.3.1-.6.3-.7l5.7-1.8c.3-.1.6.1.7.3s0 .6-.3.7z"/><path d="m334.2 79-5.7 2c-.3.1-.6 0-.7-.3s0-.6.3-.7l5.7-2c.3-.1.6 0 .7.3s0 .6-.3.7z"/><path d="m317.3 85.1-5.6 2.2c-.3.1-.6 0-.7-.3s0-.6.3-.7l5.6-2.2c.3-.1.6 0 .7.3s0 .6-.3.7z"/><path d="m300.6 91.8-5.5 2.4c-.3.1-.6 0-.7-.3s0-.6.3-.7l5.5-2.4c.3-.1.6 0 .7.3s0 .6-.3.7z"/><path d="m284.2 99.2-5.4 2.6c-.3.1-.6 0-.7-.2-.1-.3 0-.6.2-.7l5.4-2.6c.3-.1.6 0 .7.2s.1.5-.2.7z"/><path d="m268.2 107.4-5.2 2.9c-.3.1-.6.1-.7-.2s-.1-.6.2-.7l5.3-2.9c.3-.1.6-.1.7.2.1.2 0 .5-.3.7z"/><path d="m252.7 116.4-5 3.2c-.3.2-.6.1-.8-.2s-.1-.6.2-.8l5.1-3.3c.3-.2.6-.1.8.2 0 .4 0 .8-.3.9z"/><path d="m237.8 126.5-4.8 3.6c-.2.2-.6.1-.8-.1s-.1-.6.1-.8l4.8-3.6c.2-.2.6-.1.8.1.2.3.2.6-.1.8z"/><path d="m223.8 137.7-4.5 4c-.2.2-.6.2-.8 0s-.2-.6 0-.8l4.5-4c.2-.2.6-.2.8 0 .3.2.2.6 0 .8z"/><path d="m210.8 150.1-4 4.4c-.2.2-.6.2-.8 0s-.2-.6 0-.8l4.1-4.4c.2-.2.6-.2.8 0 .1.2.2.5-.1.8z"/><path d="m199.2 163.7-3.5 4.8c-.2.3-.5.3-.8.1s-.3-.5-.1-.8l3.6-4.9c.2-.3.5-.3.8-.1.1.3.2.7 0 .9z"/><path d="m189.2 178.6-2.9 5.2c-.2.3-.5.4-.8.2s-.4-.5-.2-.8l3-5.2c.2-.3.5-.4.8-.2.2.2.3.5.1.8z"/><path d="m181.1 194.6-2.3 5.5c-.1.3-.5.4-.8.3s-.4-.5-.3-.8l2.3-5.6c.1-.3.5-.4.7-.3s.5.5.4.9z"/><path d="m175 211.4-1.6 5.8c-.1.3-.4.5-.7.4s-.5-.4-.4-.7l1.6-5.8c.1-.3.4-.5.7-.4s.5.4.4.7z"/><path d="m171 228.9-.9 5.9c0 .3-.3.5-.7.5s-.5-.3-.5-.7l.9-6c0-.3.3-.5.7-.5.4.2.6.5.5.8z"/><path d="m169.1 246.7-.2 6c0 .3-.3.6-.6.6s-.6-.3-.6-.6l.2-6c0-.3.3-.6.6-.6.4 0 .6.3.6.6z"/><path d="m169.1 264.7.4 6c0 .3-.2.6-.6.6-.3 0-.6-.2-.6-.6l-.4-6c0-.3.2-.6.6-.6.3 0 .6.2.6.6z"/><path d="m170.8 282.5c.3 2 .6 3.9 1 5.9.1.3-.1.6-.5.7-.3.1-.6-.1-.7-.5-.4-2-.8-3.9-1.1-5.9 0-.3.2-.6.5-.7.4 0 .7.2.8.5z"/><path d="m174.8 299.9c.6 1.9 1.2 3.8 1.9 5.6.1.3 0 .7-.4.8s-.7 0-.8-.4c-.7-1.9-1.4-3.8-2-5.7-.1-.3.1-.7.4-.8.5 0 .8.2.9.5z"/><path d="m181.5 316.5c.9 1.8 1.8 3.5 2.8 5.3.2.3.1.7-.2.8-.3.2-.7.1-.8-.2-1-1.8-1.9-3.5-2.8-5.3-.1-.3 0-.7.3-.8.2-.2.5-.1.7.2z"/><path d="m190.7 331.9c1.2 1.6 2.3 3.2 3.6 4.8.2.3.2.7-.1.9s-.7.2-.9-.1c-1.2-1.6-2.4-3.2-3.6-4.8-.2-.3-.1-.7.1-.9.3-.3.7-.2.9.1z"/><path d="m202.1 345.7 4.2 4.3c.2.2.2.6 0 .9-.2.2-.6.2-.9 0l-4.2-4.3c-.2-.2-.2-.6 0-.9s.6-.3.9 0z"/><path d="m215.2 357.9 4.7 3.7c.3.2.3.6.1.9s-.6.3-.9.1l-4.7-3.8c-.3-.2-.3-.6-.1-.9.2-.2.6-.2.9 0z"/><path d="m229.6 368.6 5 3.2c.3.2.4.6.2.9s-.6.4-.9.2l-5.1-3.3c-.3-.2-.4-.6-.2-.9s.7-.3 1-.1z"/><path d="m244.9 377.8 5.3 2.8c.3.2.4.5.3.9-.2.3-.5.4-.9.3l-5.3-2.8c-.3-.2-.4-.5-.3-.9s.6-.5.9-.3z"/><path d="m261 385.8 5.5 2.4c.3.1.5.5.3.8-.1.3-.5.5-.8.3l-5.5-2.4c-.3-.1-.5-.5-.3-.8.1-.3.5-.5.8-.3z"/><path d="m277.6 392.7 5.6 2.1c.3.1.5.5.4.8s-.5.5-.8.4l-5.6-2.1c-.3-.1-.5-.5-.4-.8.1-.4.4-.6.8-.4z"/><path d="m294.6 398.6 5.7 1.8c.3.1.5.5.4.8s-.5.5-.8.4l-5.7-1.8c-.3-.1-.5-.5-.4-.8 0-.4.4-.5.8-.4z"/><path d="m311.8 403.6 5.8 1.5c.3.1.6.4.5.8-.1.3-.4.6-.8.5l-5.8-1.5c-.3-.1-.6-.4-.5-.8s.4-.6.8-.5z"/><path d="m329.3 407.9 5.9 1.3c.4.1.6.4.5.8s-.4.6-.8.5l-5.9-1.3c-.4-.1-.6-.4-.5-.8 0-.4.4-.6.8-.5z"/><path d="m346.9 411.5 5.9 1.1c.4.1.6.4.5.8s-.4.6-.8.5l-5.9-1.1c-.4-.1-.6-.4-.5-.8s.4-.6.8-.5z"/><path d="m364.6 414.4 5.9.9c.4.1.6.4.6.7-.1.4-.4.6-.7.6l-5.9-.9c-.4-.1-.6-.4-.6-.7 0-.4.3-.6.7-.6z"/><path d="m382.4 416.8 6 .7c.4 0 .6.4.6.7s-.4.6-.7.6l-6-.7c-.4 0-.6-.4-.6-.7 0-.4.3-.6.7-.6z"/><path d="m400.3 418.6 6 .5c.4 0 .6.4.6.7 0 .4-.4.6-.7.6l-6-.5c-.4 0-.6-.4-.6-.7s.3-.6.7-.6z"/><path d="m418.2 419.9 6 .3c.4 0 .7.3.6.7s-.3.7-.7.6l-6-.3c-.4 0-.7-.3-.6-.7s.4-.6.7-.6z"/><path d="m436.2 420.6 6 .1c.4 0 .7.3.7.7s-.3.7-.7.7l-6-.1c-.4 0-.7-.3-.7-.7s.3-.7.7-.7z"/></g></g></svg>